<svg width="24" height="24" viewBox="0 0 24 24" fill="none" xmlns="http://www.w3.org/2000/svg">
<g clip-path="url(#clip0_1073_1942)">
<path d="M22.2776 9.94483C22.2528 5.28231 20.741 1.42194 12.0002 0.586358C10.0835 0.402531 8.43115 1.93999 8.43115 3.87854V19.6626C6.63011 19.6626 5.59741 20.4063 5.59741 21.3171C5.59741 22.1192 6.30791 22.796 7.81979 22.9381C8.15025 22.9715 8.43115 22.7041 8.43115 22.3699V19.6626C12.8098 19.6626 15.941 18.9189 18.1055 17.6572V18.6599C18.1055 20.9912 19.9726 22.8879 22.2859 22.8879V10.1621C22.2859 10.0869 22.2859 10.02 22.2859 9.94483H22.2776ZM13.9416 11.4739C13.0246 11.4739 12.2811 10.7219 12.2811 9.79443C12.2811 8.86694 13.0246 8.11492 13.9416 8.11492C14.0408 8.11492 14.1399 8.12327 14.2391 8.13999C14.0573 8.31546 13.9416 8.55777 13.9416 8.83352C13.9416 9.35993 14.363 9.79443 14.8917 9.79443C15.1644 9.79443 15.404 9.6858 15.5774 9.50198C15.594 9.60225 15.6022 9.69416 15.6022 9.79443C15.6022 10.7219 14.8587 11.4739 13.9416 11.4739Z" fill="#FF4E00"/>
<path d="M5.03553 9.79446C5.03553 10.7219 4.29198 11.474 3.37494 11.474C2.4579 11.474 1.71436 10.7219 1.71436 9.79446C1.71436 8.86696 2.4579 8.11494 3.37494 8.11494C3.47408 8.11494 3.57322 8.1233 3.67236 8.14001C3.4906 8.31548 3.37494 8.5578 3.37494 8.83354C3.37494 9.35996 3.79628 9.79446 4.32503 9.79446C4.5894 9.79446 4.83725 9.68583 5.01074 9.502C5.02726 9.59392 5.03553 9.69419 5.03553 9.79446Z" fill="#FF4E00"/>
</g>
<defs>
<clipPath id="clip0_1073_1942">
<rect width="24" height="24" fill="white"/>
</clipPath>
</defs>
</svg>
