<svg width="165" height="32" viewBox="0 0 165 32" fill="none" xmlns="http://www.w3.org/2000/svg">
<g clip-path="url(#clip0_699_4641)">
<g clip-path="url(#clip1_699_4641)">
<path d="M43.3742 27.7778L43.6676 27.6296C44.3521 27.0863 44.4254 26.3701 44.4254 20.1467C44.4254 14.7877 44.3765 14.1209 43.6431 13.6023L43.252 13.2318V13.1577C45.0366 12.9355 46.699 12.0464 47.5547 10.9104H47.6525C47.6525 11.6266 47.5302 12.6885 47.5058 13.8739H47.5791C48.8259 12.5403 50.0972 11.3549 51.7596 11.3549C53.9599 11.3549 55.8668 13.4294 55.8668 16.9115C55.8668 21.5297 52.8842 23.7029 50.2928 23.7029C48.9971 23.7029 48.1659 23.2584 47.6525 22.4434C47.6525 26.3701 47.7747 26.9381 48.8015 27.3826L49.5105 27.7037V27.8024H43.3742V27.7037V27.7778ZM50.2194 23.1596C51.6618 23.1596 52.3708 21.5297 52.3708 18.4674C52.3708 14.9852 51.2707 13.3553 49.6327 13.3553C49.0215 13.3553 48.4348 13.5282 47.7258 14.0962C47.6525 15.2816 47.628 16.4917 47.628 17.7512C47.628 21.7272 48.6304 23.1596 50.2194 23.1596Z" fill="#FF4E00"/>
<path d="M55.1823 19.6281C55.5246 17.5536 58.2138 17.1585 62.6387 16.8868C63.1277 13.8986 63.0054 12.244 61.7097 12.0464C60.7319 11.8735 59.974 12.6391 59.9495 14.4172C59.9495 15.2322 58.9472 15.6767 57.896 15.5038C56.7469 15.3063 56.5269 14.763 56.6247 14.2444C56.9181 12.5156 59.9006 11.0586 62.7854 11.5278C65.988 12.0711 66.4525 13.6023 66.0858 15.8743C65.8413 17.356 65.548 18.7143 65.3279 20.0726C64.9612 22.3199 64.9857 22.9867 65.5235 23.0608C65.768 23.1102 66.2325 22.7398 66.7214 20.9617H66.9415C66.4281 24.0486 65.3524 24.592 63.9589 24.3697C62.5654 24.1474 61.9053 23.1102 61.9787 21.5544H61.9053C60.5118 22.7892 59.3384 23.6041 58.0915 23.3819C55.9646 23.0361 54.8889 21.3568 55.1823 19.6034V19.6281ZM60.0962 21.7272C60.7074 21.826 61.2697 21.5791 61.832 21.2827C62.0765 20.1714 62.3454 18.6402 62.541 17.5042C59.6317 17.4548 58.825 17.6277 58.556 19.2329C58.4094 20.1961 58.8739 21.5297 60.0718 21.7272H60.0962Z" fill="#FF4E00"/>
<path d="M73.2731 27.7531L74.0065 27.3579C75.0822 26.8146 75.0577 26.0737 74.7643 21.3074H74.691C73.3709 22.888 72.4174 23.9005 70.8283 23.9993C68.6036 24.1474 66.5501 22.2459 66.33 18.7143C66.0367 14.3431 68.5303 11.6513 72.2952 11.3796C74.0065 11.2562 75.4489 11.6513 76.5246 12.6144L77.4047 10.8857H77.5269C77.5269 12.9355 77.5758 15.6273 77.8203 18.9119C78.2848 25.9256 78.407 26.6911 79.1404 27.1851L79.4338 27.3085V27.4073L73.322 27.8272V27.7284L73.2731 27.7531ZM72.7352 21.8754C73.4197 21.826 73.9576 21.6285 74.6177 21.0358C74.6177 20.0973 74.5932 19.1836 74.5199 18.2945C74.2265 13.948 73.2731 11.997 71.5129 12.1205C70.0949 12.2193 69.4593 13.627 69.7038 16.9856C69.9482 20.5912 71.2439 21.9742 72.7352 21.8754Z" fill="#FF4E00"/>
<path d="M86.2059 21.1839H86.1081C84.959 22.6163 83.5655 23.9005 81.9276 24.024C79.4829 24.1968 78.7494 22.7398 78.6027 20.4677C78.4561 18.4427 78.4072 17.282 78.3338 16.2694C78.236 14.9852 78.1627 14.2443 77.4293 13.8739L77.0137 13.5529V13.4541C78.6272 13.2071 80.3385 12.4168 81.4142 11.108H81.5364C81.4631 12.812 81.4875 14.7383 81.7076 17.7512C81.9276 21.0604 82.3921 21.9989 84.0789 21.8754C84.5923 21.8507 85.228 21.6531 85.9369 21.011C85.9369 19.7269 85.8636 18.5661 85.7903 17.2326C85.5947 14.4172 85.448 13.7257 84.519 13.38L84.1034 13.0589V12.9602C85.8636 12.6885 87.6483 11.8982 88.7484 10.5893H88.8462C88.7728 12.2934 88.8462 14.2443 89.0173 17.035C89.2862 21.2086 89.5551 21.7766 90.3375 22.0236L90.7531 22.1471V22.2458C88.9195 22.5175 87.2815 23.2831 86.3281 24.0487H86.2548C86.2792 23.1349 86.2548 22.1965 86.2548 21.1839H86.2059Z" fill="#FF4E00"/>
<path d="M89.8488 23.53L90.1422 23.3819C90.8267 22.8386 90.9245 22.0236 90.9245 17.85C90.9245 14.5654 90.8511 13.8739 90.1422 13.4541L89.7266 13.0836V12.9849C91.3401 12.8367 93.1492 12.1699 94.3227 10.9351H94.4204C94.2249 12.7132 94.1515 14.7136 94.1515 17.282C94.1515 21.505 94.2493 22.8139 95.0805 23.3572L95.3983 23.5053V23.6041H89.8977V23.5053L89.8488 23.53ZM92.8314 7.03313C94.0293 7.03313 94.616 7.55174 94.616 8.66306C94.616 9.87316 93.687 10.5153 92.2446 10.5153C91.0712 10.5153 90.4355 9.97195 90.4355 8.86063C90.4355 7.74931 91.2912 7.03313 92.8314 7.03313Z" fill="#FF4E00"/>
<path d="M100.703 17.9734C100.703 13.8739 103.343 11.3796 107.304 11.3796C108.697 11.3796 110.14 11.7007 111.044 11.9476L111.093 12.0711C110.678 13.4541 110.311 14.9852 110.091 16.9362H109.895C109.309 13.948 108.062 12.0217 106.302 12.0217C104.81 12.0217 103.955 13.6023 103.955 16.3682C103.955 19.6528 105.299 21.4309 107.695 21.4309C109.235 21.4309 110.238 20.5912 111.044 18.7143H111.215C110.873 22.073 109.186 23.8511 106.399 23.8511C103.123 23.8511 100.752 21.7272 100.752 17.9488L100.703 17.9734Z" fill="#FF4E00"/>
<path d="M110.262 20.1467C110.434 18.0722 113.074 17.4301 117.474 16.788C117.719 13.7751 117.474 12.1452 116.154 12.0217C115.176 11.9476 114.467 12.7626 114.59 14.5407C114.639 15.3557 113.709 15.8743 112.634 15.8002C111.46 15.7014 111.216 15.1828 111.265 14.6642C111.411 12.9108 114.272 11.2068 117.181 11.4537C120.408 11.7254 121.019 13.2318 120.824 15.5285C120.701 17.0103 120.53 18.418 120.408 19.7763C120.237 22.0483 120.286 22.6904 120.848 22.7398C121.117 22.7398 121.533 22.3693 121.875 20.5665H122.095C121.826 23.6535 120.799 24.2956 119.406 24.1721C118.012 24.0487 117.254 23.0855 117.205 21.5297H117.132C115.836 22.8633 114.736 23.777 113.489 23.6782C111.338 23.5054 110.14 21.9248 110.262 20.1467ZM115.323 21.826C115.934 21.8754 116.472 21.5791 117.01 21.258C117.181 20.122 117.328 18.5908 117.401 17.4301C114.516 17.6277 113.71 17.8747 113.587 19.4799C113.514 20.4431 114.101 21.7272 115.323 21.826Z" fill="#FF4E00"/>
<path d="M121.556 15.9978C121.556 9.725 121.507 4.68703 120.75 4.14371L120.383 3.82266V3.72388C122.167 3.50161 124.074 2.73604 125.003 1.60002H125.126C124.881 3.37813 124.783 10.1942 124.783 13.8245H124.857C125.957 12.6391 127.228 11.4043 128.89 11.4043C131.066 11.4043 133.022 13.4047 133.022 16.9609C133.022 21.5297 130.308 23.8758 126.544 23.8758C124.686 23.8758 123.365 23.3325 122.461 22.3199L121.458 22.9373H121.336C121.458 21.0358 121.605 18.9366 121.605 15.9978H121.556ZM127.326 23.2337C128.744 23.2337 129.526 22.1224 129.526 18.4427C129.526 15.0099 128.426 13.3553 126.812 13.3553C126.103 13.3553 125.566 13.5282 124.881 14.0962C124.832 15.0099 124.783 15.7755 124.783 17.0844C124.783 20.937 125.541 23.209 127.326 23.209V23.2337Z" fill="#FF4E00"/>
<path d="M132.484 18.0475C132.484 13.8739 135.1 11.3796 138.743 11.3796C141.945 11.3796 143.681 13.5529 143.241 16.6152L135.736 16.9362C135.956 19.8997 137.3 21.4309 139.452 21.4309C140.943 21.4309 142.312 20.4924 142.899 18.7143H143.07C142.728 22.1471 140.919 23.8511 138.132 23.8511C134.905 23.8511 132.509 21.7272 132.509 18.0228L132.484 18.0475ZM135.711 16.4423L139.33 16.2694C139.941 16.2694 140.136 16.0225 140.136 15.4545C140.136 13.4047 139.281 12.0217 137.936 12.0217C136.592 12.0217 135.736 13.5776 135.736 16.1459V16.4423H135.711Z" fill="#FF4E00"/>
<path d="M143.461 23.53L143.779 23.3572C144.39 22.8632 144.488 22.1224 144.488 16.2941C144.488 9.72499 144.488 9.45334 143.706 8.91003L143.314 8.58897V8.49019C145.124 8.26792 147.03 7.50235 147.984 6.36633H148.082C147.837 7.99627 147.764 10.2683 147.764 15.084C147.764 21.9248 147.837 22.8385 148.668 23.3819L148.986 23.53V23.6288H143.51V23.53H143.461Z" fill="#FF4E00"/>
<path d="M148.522 23.5301L148.84 23.3572C149.451 22.8633 149.548 22.1224 149.548 16.2941C149.548 9.725 149.548 4.68703 148.766 4.14371L148.375 3.82266V3.72388C150.184 3.50161 152.091 2.73604 153.044 1.60002H153.142C152.898 3.22996 152.824 10.2436 152.824 15.084C152.824 21.9248 152.898 22.8386 153.729 23.3819L154.047 23.5301V23.6288H148.571V23.5301H148.522Z" fill="#FF4E00"/>
<path d="M153.803 21.1839C151.603 17.6277 152.483 14.2691 156.003 12.0711C158.79 10.3177 161.724 10.6881 163.778 14.0468C166.002 17.6277 165.049 21.0851 161.773 23.1596C158.888 24.9871 155.881 24.592 153.803 21.2086V21.1839ZM162.189 22.1224C163.338 21.3815 163.386 20.0726 161.651 17.2573C159.793 14.2444 157.299 12.0217 155.49 13.1577C154.316 13.8986 154.194 15.1087 155.979 17.9981C157.764 20.8876 160.379 23.2831 162.189 22.1224Z" fill="#FF4E00"/>
<path d="M28.823 13.1228C28.7883 6.59524 26.6691 1.19071 14.4171 0.0209041C11.7305 -0.236454 9.41443 1.916 9.41443 4.62996V26.7277C6.88992 26.7277 5.44238 27.7688 5.44238 29.0439C5.44238 30.1669 6.43829 31.1145 8.55749 31.3133C9.0207 31.3601 9.41443 30.9858 9.41443 30.5178V26.7277C15.552 26.7277 19.9409 25.6865 22.975 23.9201V25.3239C22.975 28.5877 25.5921 31.2431 28.8346 31.2431V13.4269C28.8346 13.3216 28.8346 13.2281 28.8346 13.1228H28.823ZM17.1385 15.2635C15.8531 15.2635 14.8109 14.2107 14.8109 12.9122C14.8109 11.6137 15.8531 10.5609 17.1385 10.5609C17.2775 10.5609 17.4164 10.5726 17.5554 10.596C17.3006 10.8416 17.1385 11.1809 17.1385 11.5669C17.1385 12.3039 17.7291 12.9122 18.4702 12.9122C18.8524 12.9122 19.1882 12.7601 19.4314 12.5028C19.4546 12.6432 19.4661 12.7718 19.4661 12.9122C19.4661 14.2107 18.4239 15.2635 17.1385 15.2635Z" fill="#FF4E00"/>
<path d="M4.65528 12.9122C4.65528 14.2107 3.61306 15.2636 2.32764 15.2636C1.04223 15.2636 0 14.2107 0 12.9122C0 11.6138 1.04223 10.5609 2.32764 10.5609C2.46661 10.5609 2.60557 10.5726 2.74453 10.596C2.48977 10.8417 2.32764 11.1809 2.32764 11.567C2.32764 12.3039 2.91824 12.9122 3.65938 12.9122C4.02995 12.9122 4.37736 12.7602 4.62054 12.5028C4.6437 12.6315 4.65528 12.7719 4.65528 12.9122Z" fill="#FF4E00"/>
</g>
</g>
<defs>
<clipPath id="clip0_699_4641">
<rect width="165" height="32" fill="white"/>
</clipPath>
<clipPath id="clip1_699_4641">
<rect width="165" height="32" fill="white"/>
</clipPath>
</defs>
</svg>
